<svg width="56" height="56" viewBox="0 0 56 56" fill="none" xmlns="http://www.w3.org/2000/svg">
<g filter="url(#filter0_dd_791_62436)">
<path fill-rule="evenodd" clip-rule="evenodd" d="M27.3259 20.4471C29.1739 16.6355 33.0695 14 37.5846 14C43.8847 14 48.9983 19.1031 48.9983 25.4032C48.9983 31.7033 43.8742 36.8169 37.5846 36.8169C35.5685 36.8169 33.668 36.2813 32.0195 35.3573V30.2858H33.5735V32.9318C33.5735 33.4253 33.9725 33.8243 34.466 33.8243C34.9595 33.8243 35.3585 33.4253 35.3585 32.9318V30.2858H38.0046C38.4981 30.2858 38.8971 29.8867 38.8971 29.3932C38.8971 28.8997 38.4981 28.5007 38.0046 28.5007H35.3585V26.7577H39.7686C42.2151 26.7577 44.1997 24.7732 44.1997 22.3266C44.1997 19.8801 42.2151 17.8956 39.7686 17.8956H34.466C33.9725 17.8956 33.5735 18.2946 33.5735 18.7881V24.9622H32.0195V24.1957H32.009C31.883 22.4736 29.993 21.2346 27.3259 20.4471ZM42.407 22.3117C42.4042 20.8545 41.2188 19.6709 39.7715 19.6709H35.3614V24.9524H39.7715C41.2292 24.9524 42.4042 23.7688 42.407 22.3117ZM33.5736 26.7487H32.0195V28.4918H33.5736V26.7487ZM7 36.1752V38.7057C7 40.7953 12.3446 42.4963 18.9177 42.4963C25.4908 42.4963 30.8354 40.7953 30.8354 38.7162V36.1752C28.6093 38.0337 23.6323 38.9052 18.9177 38.9052C14.2031 38.9052 9.22603 38.0337 7 36.1752ZM7 31.3993C9.22603 33.2579 14.2031 34.1294 18.9177 34.1294V34.1189C23.6323 34.1189 28.6093 33.2474 30.8354 31.3888V33.9299C30.8354 36.0089 25.4908 37.7099 18.9177 37.7099C12.3446 37.7099 7 36.0194 7 33.9299V31.3993ZM18.9177 29.3397C14.2031 29.3397 9.22603 28.4787 7 26.6096V29.1402C7 31.2402 12.3446 32.9307 18.9177 32.9307C25.4908 32.9307 30.8354 31.2297 30.8354 29.1507V26.6096C28.6093 28.4682 23.6323 29.3397 18.9177 29.3397ZM7 24.3729C7 26.4519 12.3446 28.1529 18.9177 28.1529C25.4908 28.1529 30.8354 26.4519 30.8354 24.3729C30.8354 22.2938 25.4908 20.5928 18.9177 20.5928C12.3446 20.5928 7 22.2938 7 24.3729Z" fill="#EAEFFD"/>
</g>
<path fill-rule="evenodd" clip-rule="evenodd" d="M27.3259 20.4471C29.1739 16.6355 33.0695 14 37.5846 14C43.8847 14 48.9983 19.1031 48.9983 25.4032C48.9983 31.7033 43.8742 36.8169 37.5846 36.8169C35.5685 36.8169 33.668 36.2813 32.0195 35.3573V30.2858H33.5735V32.9318C33.5735 33.4253 33.9725 33.8243 34.466 33.8243C34.9595 33.8243 35.3585 33.4253 35.3585 32.9318V30.2858H38.0046C38.4981 30.2858 38.8971 29.8867 38.8971 29.3932C38.8971 28.8997 38.4981 28.5007 38.0046 28.5007H35.3585V26.7577H39.7686C42.2151 26.7577 44.1997 24.7732 44.1997 22.3266C44.1997 19.8801 42.2151 17.8956 39.7686 17.8956H34.466C33.9725 17.8956 33.5735 18.2946 33.5735 18.7881V24.9622H32.0195V24.1957H32.009C31.883 22.4736 29.993 21.2346 27.3259 20.4471ZM42.407 22.3117C42.4042 20.8545 41.2188 19.6709 39.7715 19.6709H35.3614V24.9524H39.7715C41.2292 24.9524 42.4042 23.7688 42.407 22.3117ZM33.5736 26.7487H32.0195V28.4918H33.5736V26.7487ZM7 36.1752V38.7057C7 40.7953 12.3446 42.4963 18.9177 42.4963C25.4908 42.4963 30.8354 40.7953 30.8354 38.7162V36.1752C28.6093 38.0337 23.6323 38.9052 18.9177 38.9052C14.2031 38.9052 9.22603 38.0337 7 36.1752ZM7 31.3993C9.22603 33.2579 14.2031 34.1294 18.9177 34.1294V34.1189C23.6323 34.1189 28.6093 33.2474 30.8354 31.3888V33.9299C30.8354 36.0089 25.4908 37.7099 18.9177 37.7099C12.3446 37.7099 7 36.0194 7 33.9299V31.3993ZM18.9177 29.3397C14.2031 29.3397 9.22603 28.4787 7 26.6096V29.1402C7 31.2402 12.3446 32.9307 18.9177 32.9307C25.4908 32.9307 30.8354 31.2297 30.8354 29.1507V26.6096C28.6093 28.4682 23.6323 29.3397 18.9177 29.3397ZM7 24.3729C7 26.4519 12.3446 28.1529 18.9177 28.1529C25.4908 28.1529 30.8354 26.4519 30.8354 24.3729C30.8354 22.2938 25.4908 20.5928 18.9177 20.5928C12.3446 20.5928 7 22.2938 7 24.3729Z" fill="url(#paint0_linear_791_62436)"/>
<path fill-rule="evenodd" clip-rule="evenodd" d="M27.3259 20.4471C29.1739 16.6355 33.0695 14 37.5846 14C43.8847 14 48.9983 19.1031 48.9983 25.4032C48.9983 31.7033 43.8742 36.8169 37.5846 36.8169C35.5685 36.8169 33.668 36.2813 32.0195 35.3573V30.2858H33.5735V32.9318C33.5735 33.4253 33.9725 33.8243 34.466 33.8243C34.9595 33.8243 35.3585 33.4253 35.3585 32.9318V30.2858H38.0046C38.4981 30.2858 38.8971 29.8867 38.8971 29.3932C38.8971 28.8997 38.4981 28.5007 38.0046 28.5007H35.3585V26.7577H39.7686C42.2151 26.7577 44.1997 24.7732 44.1997 22.3266C44.1997 19.8801 42.2151 17.8956 39.7686 17.8956H34.466C33.9725 17.8956 33.5735 18.2946 33.5735 18.7881V24.9622H32.0195V24.1957H32.009C31.883 22.4736 29.993 21.2346 27.3259 20.4471ZM42.407 22.3117C42.4042 20.8545 41.2188 19.6709 39.7715 19.6709H35.3614V24.9524H39.7715C41.2292 24.9524 42.4042 23.7688 42.407 22.3117ZM33.5736 26.7487H32.0195V28.4918H33.5736V26.7487ZM7 36.1752V38.7057C7 40.7953 12.3446 42.4963 18.9177 42.4963C25.4908 42.4963 30.8354 40.7953 30.8354 38.7162V36.1752C28.6093 38.0337 23.6323 38.9052 18.9177 38.9052C14.2031 38.9052 9.22603 38.0337 7 36.1752ZM7 31.3993C9.22603 33.2579 14.2031 34.1294 18.9177 34.1294V34.1189C23.6323 34.1189 28.6093 33.2474 30.8354 31.3888V33.9299C30.8354 36.0089 25.4908 37.7099 18.9177 37.7099C12.3446 37.7099 7 36.0194 7 33.9299V31.3993ZM18.9177 29.3397C14.2031 29.3397 9.22603 28.4787 7 26.6096V29.1402C7 31.2402 12.3446 32.9307 18.9177 32.9307C25.4908 32.9307 30.8354 31.2297 30.8354 29.1507V26.6096C28.6093 28.4682 23.6323 29.3397 18.9177 29.3397ZM7 24.3729C7 26.4519 12.3446 28.1529 18.9177 28.1529C25.4908 28.1529 30.8354 26.4519 30.8354 24.3729C30.8354 22.2938 25.4908 20.5928 18.9177 20.5928C12.3446 20.5928 7 22.2938 7 24.3729Z" fill="url(#paint1_linear_791_62436)"/>
<defs>
<filter id="filter0_dd_791_62436" x="1" y="7" width="53.998" height="42.4963" filterUnits="userSpaceOnUse" color-interpolation-filters="sRGB">
<feFlood flood-opacity="0" result="BackgroundImageFix"/>
<feColorMatrix in="SourceAlpha" type="matrix" values="0 0 0 0 0 0 0 0 0 0 0 0 0 0 0 0 0 0 127 0" result="hardAlpha"/>
<feOffset dx="-1" dy="-2"/>
<feGaussianBlur stdDeviation="2.5"/>
<feComposite in2="hardAlpha" operator="out"/>
<feColorMatrix type="matrix" values="0 0 0 0 0.917647 0 0 0 0 0.937255 0 0 0 0 0.992157 0 0 0 0.2 0"/>
<feBlend mode="normal" in2="BackgroundImageFix" result="effect1_dropShadow_791_62436"/>
<feColorMatrix in="SourceAlpha" type="matrix" values="0 0 0 0 0 0 0 0 0 0 0 0 0 0 0 0 0 0 127 0" result="hardAlpha"/>
<feOffset dx="1" dy="2"/>
<feGaussianBlur stdDeviation="2.5"/>
<feComposite in2="hardAlpha" operator="out"/>
<feColorMatrix type="matrix" values="0 0 0 0 0.231373 0 0 0 0 0.141176 0 0 0 0 0.776471 0 0 0 0.5 0"/>
<feBlend mode="normal" in2="effect1_dropShadow_791_62436" result="effect2_dropShadow_791_62436"/>
<feBlend mode="normal" in="SourceGraphic" in2="effect2_dropShadow_791_62436" result="shape"/>
</filter>
<linearGradient id="paint0_linear_791_62436" x1="-10.0326" y1="16.6564" x2="14.8627" y2="56.6739" gradientUnits="userSpaceOnUse">
<stop offset="0.613036" stop-color="white" stop-opacity="0"/>
<stop offset="0.902108" stop-color="white"/>
</linearGradient>
<linearGradient id="paint1_linear_791_62436" x1="-10.0326" y1="16.6564" x2="14.8627" y2="56.6739" gradientUnits="userSpaceOnUse">
<stop offset="0.248923" stop-color="#D2DAF0" stop-opacity="0.8"/>
<stop offset="0.548747" stop-color="#D2DAF0" stop-opacity="0"/>
</linearGradient>
</defs>
</svg>
