<svg width="56" height="56" viewBox="0 0 56 56" fill="none" xmlns="http://www.w3.org/2000/svg">
<g filter="url(#filter0_dd_791_62464)">
<path d="M37.4852 8.81444C37.8328 7.94535 37.1924 7 36.2561 7H20.6341C20.0644 7 19.5586 7.3644 19.3784 7.90468L12.3189 29.0736C12.0332 29.9305 12.6712 30.8151 13.5747 30.8151H20.6321C21.4932 30.8151 22.1251 31.624 21.9162 32.4591L18.1918 47.3499C17.8662 48.6517 19.4627 49.5551 20.4119 48.6065L43.8935 25.1354C44.7274 24.3019 44.1368 22.8767 42.9575 22.8767H33.8126C32.8763 22.8767 32.2359 21.9314 32.5837 21.0623L37.4852 8.81444Z" fill="#EAEFFD"/>
</g>
<path d="M37.4852 8.81444C37.8328 7.94535 37.1924 7 36.2561 7H20.6341C20.0644 7 19.5586 7.3644 19.3784 7.90468L12.3189 29.0736C12.0332 29.9305 12.6712 30.8151 13.5747 30.8151H20.6321C21.4932 30.8151 22.1251 31.624 21.9162 32.4591L18.1918 47.3499C17.8662 48.6517 19.4627 49.5551 20.4119 48.6065L43.8935 25.1354C44.7274 24.3019 44.1368 22.8767 42.9575 22.8767H33.8126C32.8763 22.8767 32.2359 21.9314 32.5837 21.0623L37.4852 8.81444Z" fill="url(#paint0_linear_791_62464)"/>
<path d="M37.4852 8.81444C37.8328 7.94535 37.1924 7 36.2561 7H20.6341C20.0644 7 19.5586 7.3644 19.3784 7.90468L12.3189 29.0736C12.0332 29.9305 12.6712 30.8151 13.5747 30.8151H20.6321C21.4932 30.8151 22.1251 31.624 21.9162 32.4591L18.1918 47.3499C17.8662 48.6517 19.4627 49.5551 20.4119 48.6065L43.8935 25.1354C44.7274 24.3019 44.1368 22.8767 42.9575 22.8767H33.8126C32.8763 22.8767 32.2359 21.9314 32.5837 21.0623L37.4852 8.81444Z" fill="url(#paint1_linear_791_62464)"/>
<defs>
<filter id="filter0_dd_791_62464" x="6.25" y="0" width="44.0342" height="56" filterUnits="userSpaceOnUse" color-interpolation-filters="sRGB">
<feFlood flood-opacity="0" result="BackgroundImageFix"/>
<feColorMatrix in="SourceAlpha" type="matrix" values="0 0 0 0 0 0 0 0 0 0 0 0 0 0 0 0 0 0 127 0" result="hardAlpha"/>
<feOffset dx="-1" dy="-2"/>
<feGaussianBlur stdDeviation="2.5"/>
<feComposite in2="hardAlpha" operator="out"/>
<feColorMatrix type="matrix" values="0 0 0 0 0.917647 0 0 0 0 0.937255 0 0 0 0 0.992157 0 0 0 0.2 0"/>
<feBlend mode="normal" in2="BackgroundImageFix" result="effect1_dropShadow_791_62464"/>
<feColorMatrix in="SourceAlpha" type="matrix" values="0 0 0 0 0 0 0 0 0 0 0 0 0 0 0 0 0 0 127 0" result="hardAlpha"/>
<feOffset dx="1" dy="2"/>
<feGaussianBlur stdDeviation="2.5"/>
<feComposite in2="hardAlpha" operator="out"/>
<feColorMatrix type="matrix" values="0 0 0 0 0.231373 0 0 0 0 0.141176 0 0 0 0 0.776471 0 0 0 0.5 0"/>
<feBlend mode="normal" in2="effect1_dropShadow_791_62464" result="effect2_dropShadow_791_62464"/>
<feBlend mode="normal" in="SourceGraphic" in2="effect2_dropShadow_791_62464" result="shape"/>
</filter>
<linearGradient id="paint0_linear_791_62464" x1="-0.741526" y1="10.9153" x2="39.4788" y2="44.3729" gradientUnits="userSpaceOnUse">
<stop offset="0.613036" stop-color="white" stop-opacity="0"/>
<stop offset="0.902108" stop-color="white"/>
</linearGradient>
<linearGradient id="paint1_linear_791_62464" x1="-0.741526" y1="10.9153" x2="39.4788" y2="44.3729" gradientUnits="userSpaceOnUse">
<stop offset="0.248923" stop-color="#D2DAF0" stop-opacity="0.8"/>
<stop offset="0.548747" stop-color="#D2DAF0" stop-opacity="0"/>
</linearGradient>
</defs>
</svg>
