<svg width="56" height="56" viewBox="0 0 56 56" fill="none" xmlns="http://www.w3.org/2000/svg">
<g filter="url(#filter0_dd_791_62471)">
<path fill-rule="evenodd" clip-rule="evenodd" d="M10.5 45.5V10.5H45.5V45.5H10.5ZM32.5588 42H42V17.71L37.975 21.735C37.4675 22.2513 36.7938 22.505 36.12 22.505C35.4463 22.505 34.7812 22.2513 34.265 21.735C33.2412 20.7113 33.2412 19.0487 34.265 18.025L38.29 14H14.0088V23.4325L16.7475 20.6937C17.7712 19.67 19.4338 19.67 20.4575 20.6937C21.4812 21.7175 21.4812 23.38 20.4575 24.4038L26.2063 18.655C27.23 17.6312 28.8925 17.6312 29.9163 18.655C30.94 19.6788 30.94 21.3413 29.9163 22.365L21.84 30.4412C21.3325 30.9575 20.6588 31.2113 19.985 31.2113C19.3112 31.2113 18.6462 30.9575 18.13 30.4412C17.1063 29.4175 17.1063 27.755 18.13 26.7312L14 30.8612V42H25.1388L29.7063 37.4325C30.73 36.4088 32.3925 36.4088 33.4163 37.4325C34.44 38.4563 34.44 40.1187 33.4163 41.1425L32.5588 42ZM29.7063 30.0125L32.0338 27.685C33.0575 26.6612 34.72 26.6612 35.7438 27.685C36.7675 28.7087 36.7675 30.3712 35.7438 31.395L33.4163 33.7225C32.9088 34.2388 32.235 34.4925 31.5613 34.4925C30.8875 34.4925 30.2225 34.2388 29.7063 33.7225C28.6825 32.6988 28.6825 31.0362 29.7063 30.0125Z" fill="#EAEFFD"/>
</g>
<path fill-rule="evenodd" clip-rule="evenodd" d="M10.5 45.5V10.5H45.5V45.5H10.5ZM32.5588 42H42V17.71L37.975 21.735C37.4675 22.2513 36.7938 22.505 36.12 22.505C35.4463 22.505 34.7812 22.2513 34.265 21.735C33.2412 20.7113 33.2412 19.0487 34.265 18.025L38.29 14H14.0088V23.4325L16.7475 20.6937C17.7712 19.67 19.4338 19.67 20.4575 20.6937C21.4812 21.7175 21.4812 23.38 20.4575 24.4038L26.2063 18.655C27.23 17.6312 28.8925 17.6312 29.9163 18.655C30.94 19.6788 30.94 21.3413 29.9163 22.365L21.84 30.4412C21.3325 30.9575 20.6588 31.2113 19.985 31.2113C19.3112 31.2113 18.6462 30.9575 18.13 30.4412C17.1063 29.4175 17.1063 27.755 18.13 26.7312L14 30.8612V42H25.1388L29.7063 37.4325C30.73 36.4088 32.3925 36.4088 33.4163 37.4325C34.44 38.4563 34.44 40.1187 33.4163 41.1425L32.5588 42ZM29.7063 30.0125L32.0338 27.685C33.0575 26.6612 34.72 26.6612 35.7438 27.685C36.7675 28.7087 36.7675 30.3712 35.7438 31.395L33.4163 33.7225C32.9088 34.2388 32.235 34.4925 31.5613 34.4925C30.8875 34.4925 30.2225 34.2388 29.7063 33.7225C28.6825 32.6988 28.6825 31.0362 29.7063 30.0125Z" fill="url(#paint0_linear_791_62471)"/>
<path fill-rule="evenodd" clip-rule="evenodd" d="M10.5 45.5V10.5H45.5V45.5H10.5ZM32.5588 42H42V17.71L37.975 21.735C37.4675 22.2513 36.7938 22.505 36.12 22.505C35.4463 22.505 34.7812 22.2513 34.265 21.735C33.2412 20.7113 33.2412 19.0487 34.265 18.025L38.29 14H14.0088V23.4325L16.7475 20.6937C17.7712 19.67 19.4338 19.67 20.4575 20.6937C21.4812 21.7175 21.4812 23.38 20.4575 24.4038L26.2063 18.655C27.23 17.6312 28.8925 17.6312 29.9163 18.655C30.94 19.6788 30.94 21.3413 29.9163 22.365L21.84 30.4412C21.3325 30.9575 20.6588 31.2113 19.985 31.2113C19.3112 31.2113 18.6462 30.9575 18.13 30.4412C17.1063 29.4175 17.1063 27.755 18.13 26.7312L14 30.8612V42H25.1388L29.7063 37.4325C30.73 36.4088 32.3925 36.4088 33.4163 37.4325C34.44 38.4563 34.44 40.1187 33.4163 41.1425L32.5588 42ZM29.7063 30.0125L32.0338 27.685C33.0575 26.6612 34.72 26.6612 35.7438 27.685C36.7675 28.7087 36.7675 30.3712 35.7438 31.395L33.4163 33.7225C32.9088 34.2388 32.235 34.4925 31.5613 34.4925C30.8875 34.4925 30.2225 34.2388 29.7063 33.7225C28.6825 32.6988 28.6825 31.0362 29.7063 30.0125Z" fill="url(#paint1_linear_791_62471)"/>
<defs>
<filter id="filter0_dd_791_62471" x="4.5" y="3.5" width="47" height="49" filterUnits="userSpaceOnUse" color-interpolation-filters="sRGB">
<feFlood flood-opacity="0" result="BackgroundImageFix"/>
<feColorMatrix in="SourceAlpha" type="matrix" values="0 0 0 0 0 0 0 0 0 0 0 0 0 0 0 0 0 0 127 0" result="hardAlpha"/>
<feOffset dx="-1" dy="-2"/>
<feGaussianBlur stdDeviation="2.5"/>
<feComposite in2="hardAlpha" operator="out"/>
<feColorMatrix type="matrix" values="0 0 0 0 0.917647 0 0 0 0 0.937255 0 0 0 0 0.992157 0 0 0 0.2 0"/>
<feBlend mode="normal" in2="BackgroundImageFix" result="effect1_dropShadow_791_62471"/>
<feColorMatrix in="SourceAlpha" type="matrix" values="0 0 0 0 0 0 0 0 0 0 0 0 0 0 0 0 0 0 127 0" result="hardAlpha"/>
<feOffset dx="1" dy="2"/>
<feGaussianBlur stdDeviation="2.5"/>
<feComposite in2="hardAlpha" operator="out"/>
<feColorMatrix type="matrix" values="0 0 0 0 0.231373 0 0 0 0 0.141176 0 0 0 0 0.776471 0 0 0 0.5 0"/>
<feBlend mode="normal" in2="effect1_dropShadow_791_62471" result="effect2_dropShadow_791_62471"/>
<feBlend mode="normal" in="SourceGraphic" in2="effect2_dropShadow_791_62471" result="shape"/>
</filter>
<linearGradient id="paint0_linear_791_62471" x1="-3.69444" y1="13.7627" x2="30.2641" y2="50.7999" gradientUnits="userSpaceOnUse">
<stop offset="0.613036" stop-color="white" stop-opacity="0"/>
<stop offset="0.902108" stop-color="white"/>
</linearGradient>
<linearGradient id="paint1_linear_791_62471" x1="-3.69444" y1="13.7627" x2="30.2641" y2="50.7999" gradientUnits="userSpaceOnUse">
<stop offset="0.248923" stop-color="#D2DAF0" stop-opacity="0.8"/>
<stop offset="0.548747" stop-color="#D2DAF0" stop-opacity="0"/>
</linearGradient>
</defs>
</svg>
