<svg width="56" height="56" viewBox="0 0 56 56" fill="none" xmlns="http://www.w3.org/2000/svg">
<g clip-path="url(#clip0_791_62500)">
<g filter="url(#filter0_dd_791_62500)">
<path fill-rule="evenodd" clip-rule="evenodd" d="M44.0043 15.4254C44.0043 16.0656 44.5073 16.5685 45.1475 16.5685C45.7876 16.5685 46.2906 16.0656 46.2906 15.4254V11.996H49.72C50.3602 11.996 50.8632 11.493 50.8632 10.8528C50.8632 10.2127 50.3602 9.70968 49.72 9.70968H46.2906V6.28024C46.2906 5.64008 45.7876 5.1371 45.1475 5.1371C44.5073 5.1371 44.0043 5.64008 44.0043 6.28024V9.70968H40.5749C39.9347 9.70968 39.4317 10.2127 39.4317 10.8528C39.4317 11.493 39.9347 11.996 40.5749 11.996H44.0043V15.4254ZM23.6106 35.7277L24.0907 37.1452H16.6603C14.4654 34.7218 13.1394 31.521 13.1394 28.0001C13.1394 20.4324 19.2895 14.3509 26.8571 14.3509C34.4248 14.3509 40.5749 20.501 40.5749 28.0687C40.5749 31.5895 39.226 34.7903 37.054 37.2138H26.4913L25.7826 35.0647L29.0291 33.9901C29.6464 33.7844 29.9665 33.1442 29.7607 32.5498C29.555 31.9325 28.9148 31.6124 28.3204 31.8182L25.0738 32.8927L24.3422 30.7208L29.7607 28.9146C31.224 28.4345 32.39 27.4285 33.0758 26.0567C33.7617 24.6849 33.876 23.1303 33.3959 21.6899C32.9158 20.2267 31.9098 19.0607 30.5381 18.3748C29.1663 17.6889 27.6116 17.5746 26.1713 18.0547L19.6553 20.2267C19.038 20.4324 18.7179 21.0726 18.9237 21.667L21.4615 29.2575L20.3869 29.6233C19.7696 29.8291 19.4496 30.4693 19.6553 31.0637C19.8154 31.5438 20.2498 31.841 20.7299 31.841C20.8442 31.841 20.9814 31.8182 21.0957 31.7724L22.1702 31.4066L22.9019 33.5786L21.8273 33.9444C21.21 34.1502 20.8899 34.7903 21.0957 35.3848C21.2557 35.8649 21.6901 36.1621 22.1702 36.1621C22.2846 36.1621 22.4217 36.1393 22.536 36.0935L23.6106 35.7277ZM31.0182 24.9593C31.4297 24.1362 31.4983 23.1989 31.2011 22.3301C30.9039 21.4613 30.3094 20.7525 29.4864 20.341C28.6633 19.9295 27.7488 19.8609 26.88 20.1581L21.4615 21.9643L23.6335 28.4802L29.052 26.674C29.9208 26.3768 30.6295 25.7824 31.041 24.9593H31.0182ZM44.0043 44.004C44.0043 45.2615 42.9755 46.2903 41.718 46.2903H11.9963C10.7388 46.2903 9.70996 45.2615 9.70996 44.004C9.70996 42.7466 10.7388 41.7177 11.9963 41.7177H41.718C42.9755 41.7177 44.0043 42.7466 44.0043 44.004Z" fill="#EAEFFD"/>
</g>
<path fill-rule="evenodd" clip-rule="evenodd" d="M44.0043 15.4254C44.0043 16.0656 44.5073 16.5685 45.1475 16.5685C45.7876 16.5685 46.2906 16.0656 46.2906 15.4254V11.996H49.72C50.3602 11.996 50.8632 11.493 50.8632 10.8528C50.8632 10.2127 50.3602 9.70968 49.72 9.70968H46.2906V6.28024C46.2906 5.64008 45.7876 5.1371 45.1475 5.1371C44.5073 5.1371 44.0043 5.64008 44.0043 6.28024V9.70968H40.5749C39.9347 9.70968 39.4317 10.2127 39.4317 10.8528C39.4317 11.493 39.9347 11.996 40.5749 11.996H44.0043V15.4254ZM23.6106 35.7277L24.0907 37.1452H16.6603C14.4654 34.7218 13.1394 31.521 13.1394 28.0001C13.1394 20.4324 19.2895 14.3509 26.8571 14.3509C34.4248 14.3509 40.5749 20.501 40.5749 28.0687C40.5749 31.5895 39.226 34.7903 37.054 37.2138H26.4913L25.7826 35.0647L29.0291 33.9901C29.6464 33.7844 29.9665 33.1442 29.7607 32.5498C29.555 31.9325 28.9148 31.6124 28.3204 31.8182L25.0738 32.8927L24.3422 30.7208L29.7607 28.9146C31.224 28.4345 32.39 27.4285 33.0758 26.0567C33.7617 24.6849 33.876 23.1303 33.3959 21.6899C32.9158 20.2267 31.9098 19.0607 30.5381 18.3748C29.1663 17.6889 27.6116 17.5746 26.1713 18.0547L19.6553 20.2267C19.038 20.4324 18.7179 21.0726 18.9237 21.667L21.4615 29.2575L20.3869 29.6233C19.7696 29.8291 19.4496 30.4693 19.6553 31.0637C19.8154 31.5438 20.2498 31.841 20.7299 31.841C20.8442 31.841 20.9814 31.8182 21.0957 31.7724L22.1702 31.4066L22.9019 33.5786L21.8273 33.9444C21.21 34.1502 20.8899 34.7903 21.0957 35.3848C21.2557 35.8649 21.6901 36.1621 22.1702 36.1621C22.2846 36.1621 22.4217 36.1393 22.536 36.0935L23.6106 35.7277ZM31.0182 24.9593C31.4297 24.1362 31.4983 23.1989 31.2011 22.3301C30.9039 21.4613 30.3094 20.7525 29.4864 20.341C28.6633 19.9295 27.7488 19.8609 26.88 20.1581L21.4615 21.9643L23.6335 28.4802L29.052 26.674C29.9208 26.3768 30.6295 25.7824 31.041 24.9593H31.0182ZM44.0043 44.004C44.0043 45.2615 42.9755 46.2903 41.718 46.2903H11.9963C10.7388 46.2903 9.70996 45.2615 9.70996 44.004C9.70996 42.7466 10.7388 41.7177 11.9963 41.7177H41.718C42.9755 41.7177 44.0043 42.7466 44.0043 44.004Z" fill="url(#paint0_linear_791_62500)"/>
<path fill-rule="evenodd" clip-rule="evenodd" d="M44.0043 15.4254C44.0043 16.0656 44.5073 16.5685 45.1475 16.5685C45.7876 16.5685 46.2906 16.0656 46.2906 15.4254V11.996H49.72C50.3602 11.996 50.8632 11.493 50.8632 10.8528C50.8632 10.2127 50.3602 9.70968 49.72 9.70968H46.2906V6.28024C46.2906 5.64008 45.7876 5.1371 45.1475 5.1371C44.5073 5.1371 44.0043 5.64008 44.0043 6.28024V9.70968H40.5749C39.9347 9.70968 39.4317 10.2127 39.4317 10.8528C39.4317 11.493 39.9347 11.996 40.5749 11.996H44.0043V15.4254ZM23.6106 35.7277L24.0907 37.1452H16.6603C14.4654 34.7218 13.1394 31.521 13.1394 28.0001C13.1394 20.4324 19.2895 14.3509 26.8571 14.3509C34.4248 14.3509 40.5749 20.501 40.5749 28.0687C40.5749 31.5895 39.226 34.7903 37.054 37.2138H26.4913L25.7826 35.0647L29.0291 33.9901C29.6464 33.7844 29.9665 33.1442 29.7607 32.5498C29.555 31.9325 28.9148 31.6124 28.3204 31.8182L25.0738 32.8927L24.3422 30.7208L29.7607 28.9146C31.224 28.4345 32.39 27.4285 33.0758 26.0567C33.7617 24.6849 33.876 23.1303 33.3959 21.6899C32.9158 20.2267 31.9098 19.0607 30.5381 18.3748C29.1663 17.6889 27.6116 17.5746 26.1713 18.0547L19.6553 20.2267C19.038 20.4324 18.7179 21.0726 18.9237 21.667L21.4615 29.2575L20.3869 29.6233C19.7696 29.8291 19.4496 30.4693 19.6553 31.0637C19.8154 31.5438 20.2498 31.841 20.7299 31.841C20.8442 31.841 20.9814 31.8182 21.0957 31.7724L22.1702 31.4066L22.9019 33.5786L21.8273 33.9444C21.21 34.1502 20.8899 34.7903 21.0957 35.3848C21.2557 35.8649 21.6901 36.1621 22.1702 36.1621C22.2846 36.1621 22.4217 36.1393 22.536 36.0935L23.6106 35.7277ZM31.0182 24.9593C31.4297 24.1362 31.4983 23.1989 31.2011 22.3301C30.9039 21.4613 30.3094 20.7525 29.4864 20.341C28.6633 19.9295 27.7488 19.8609 26.88 20.1581L21.4615 21.9643L23.6335 28.4802L29.052 26.674C29.9208 26.3768 30.6295 25.7824 31.041 24.9593H31.0182ZM44.0043 44.004C44.0043 45.2615 42.9755 46.2903 41.718 46.2903H11.9963C10.7388 46.2903 9.70996 45.2615 9.70996 44.004C9.70996 42.7466 10.7388 41.7177 11.9963 41.7177H41.718C42.9755 41.7177 44.0043 42.7466 44.0043 44.004Z" fill="url(#paint1_linear_791_62500)"/>
</g>
<defs>
<filter id="filter0_dd_791_62500" x="3.70996" y="-1.8629" width="53.1533" height="55.1532" filterUnits="userSpaceOnUse" color-interpolation-filters="sRGB">
<feFlood flood-opacity="0" result="BackgroundImageFix"/>
<feColorMatrix in="SourceAlpha" type="matrix" values="0 0 0 0 0 0 0 0 0 0 0 0 0 0 0 0 0 0 127 0" result="hardAlpha"/>
<feOffset dx="-1" dy="-2"/>
<feGaussianBlur stdDeviation="2.5"/>
<feComposite in2="hardAlpha" operator="out"/>
<feColorMatrix type="matrix" values="0 0 0 0 0.917647 0 0 0 0 0.937255 0 0 0 0 0.992157 0 0 0 0.2 0"/>
<feBlend mode="normal" in2="BackgroundImageFix" result="effect1_dropShadow_791_62500"/>
<feColorMatrix in="SourceAlpha" type="matrix" values="0 0 0 0 0 0 0 0 0 0 0 0 0 0 0 0 0 0 127 0" result="hardAlpha"/>
<feOffset dx="1" dy="2"/>
<feGaussianBlur stdDeviation="2.5"/>
<feComposite in2="hardAlpha" operator="out"/>
<feColorMatrix type="matrix" values="0 0 0 0 0.231373 0 0 0 0 0.141176 0 0 0 0 0.776471 0 0 0 0.5 0"/>
<feBlend mode="normal" in2="effect1_dropShadow_791_62500" result="effect2_dropShadow_791_62500"/>
<feBlend mode="normal" in="SourceGraphic" in2="effect2_dropShadow_791_62500" result="shape"/>
</filter>
<linearGradient id="paint0_linear_791_62500" x1="-6.97996" y1="8.97341" x2="32.9487" y2="52.522" gradientUnits="userSpaceOnUse">
<stop offset="0.613036" stop-color="white" stop-opacity="0"/>
<stop offset="0.902108" stop-color="white"/>
</linearGradient>
<linearGradient id="paint1_linear_791_62500" x1="-6.97996" y1="8.97341" x2="32.9487" y2="52.522" gradientUnits="userSpaceOnUse">
<stop offset="0.248923" stop-color="#D2DAF0" stop-opacity="0.8"/>
<stop offset="0.548747" stop-color="#D2DAF0" stop-opacity="0"/>
</linearGradient>
<clipPath id="clip0_791_62500">
<rect width="56" height="56" fill="white"/>
</clipPath>
</defs>
</svg>
