<svg width="56" height="56" viewBox="0 0 56 56" fill="none" xmlns="http://www.w3.org/2000/svg">
<g filter="url(#filter0_dd_791_62493)">
<path d="M37.2504 13.3433C28.8942 8.51329 18.1667 11.392 13.3454 19.7483C8.51541 28.1045 11.3942 38.8233 19.7504 43.6533C28.1067 48.4833 38.8342 45.6045 43.6554 37.2483C48.4767 28.892 45.6067 18.1645 37.2504 13.3433ZM40.6279 35.4983C36.7692 42.1833 28.1854 44.4845 21.5004 40.6258C14.8154 36.767 12.5142 28.1833 16.3729 21.4983C20.0829 15.067 28.1592 12.7133 34.7129 15.9683L32.7704 19.337L27.7392 28.052C27.5379 28.3933 27.5992 28.8308 27.8792 29.1108C27.9317 29.1633 27.9929 29.2158 28.0629 29.2508C28.3254 29.4083 28.6667 29.4083 28.9379 29.2508L37.6529 24.2195L37.7842 24.1408L41.0304 22.2683C43.0429 26.3283 43.0517 31.2808 40.6279 35.4895V35.4983Z" fill="#EAEFFD"/>
</g>
<path d="M37.2504 13.3435C28.8942 8.51346 18.1667 11.3922 13.3454 19.7485C8.51541 28.1047 11.3942 38.8235 19.7504 43.6535C28.1067 48.4835 38.8342 45.6047 43.6554 37.2485C48.4767 28.8922 45.6067 18.1647 37.2504 13.3435ZM40.6279 35.4985C36.7692 42.1835 28.1854 44.4847 21.5004 40.626C14.8154 36.7672 12.5142 28.1835 16.3729 21.4985C20.0829 15.0672 28.1592 12.7135 34.7129 15.9685L32.7704 19.3372L27.7392 28.0522C27.5379 28.3935 27.5992 28.831 27.8792 29.111C27.9317 29.1635 27.9929 29.216 28.0629 29.251C28.3254 29.4085 28.6667 29.4085 28.9379 29.251L37.6529 24.2197L37.7842 24.141L41.0304 22.2685C43.0429 26.3285 43.0517 31.281 40.6279 35.4897V35.4985Z" fill="url(#paint0_linear_791_62493)"/>
<path d="M37.2504 13.3435C28.8942 8.51346 18.1667 11.3922 13.3454 19.7485C8.51541 28.1047 11.3942 38.8235 19.7504 43.6535C28.1067 48.4835 38.8342 45.6047 43.6554 37.2485C48.4767 28.8922 45.6067 18.1647 37.2504 13.3435ZM40.6279 35.4985C36.7692 42.1835 28.1854 44.4847 21.5004 40.626C14.8154 36.7672 12.5142 28.1835 16.3729 21.4985C20.0829 15.0672 28.1592 12.7135 34.7129 15.9685L32.7704 19.3372L27.7392 28.0522C27.5379 28.3935 27.5992 28.831 27.8792 29.111C27.9317 29.1635 27.9929 29.216 28.0629 29.251C28.3254 29.4085 28.6667 29.4085 28.9379 29.251L37.6529 24.2197L37.7842 24.141L41.0304 22.2685C43.0429 26.3285 43.0517 31.281 40.6279 35.4897V35.4985Z" fill="url(#paint1_linear_791_62493)"/>
<defs>
<filter id="filter0_dd_791_62493" x="5.00195" y="3.99983" width="46.9932" height="48.9969" filterUnits="userSpaceOnUse" color-interpolation-filters="sRGB">
<feFlood flood-opacity="0" result="BackgroundImageFix"/>
<feColorMatrix in="SourceAlpha" type="matrix" values="0 0 0 0 0 0 0 0 0 0 0 0 0 0 0 0 0 0 127 0" result="hardAlpha"/>
<feOffset dx="-1" dy="-2"/>
<feGaussianBlur stdDeviation="2.5"/>
<feComposite in2="hardAlpha" operator="out"/>
<feColorMatrix type="matrix" values="0 0 0 0 0.917647 0 0 0 0 0.937255 0 0 0 0 0.992157 0 0 0 0.2 0"/>
<feBlend mode="normal" in2="BackgroundImageFix" result="effect1_dropShadow_791_62493"/>
<feColorMatrix in="SourceAlpha" type="matrix" values="0 0 0 0 0 0 0 0 0 0 0 0 0 0 0 0 0 0 127 0" result="hardAlpha"/>
<feOffset dx="1" dy="2"/>
<feGaussianBlur stdDeviation="2.5"/>
<feComposite in2="hardAlpha" operator="out"/>
<feColorMatrix type="matrix" values="0 0 0 0 0.231373 0 0 0 0 0.141176 0 0 0 0 0.776471 0 0 0 0.5 0"/>
<feBlend mode="normal" in2="effect1_dropShadow_791_62493" result="effect2_dropShadow_791_62493"/>
<feBlend mode="normal" in="SourceGraphic" in2="effect2_dropShadow_791_62493" result="shape"/>
</filter>
<linearGradient id="paint0_linear_791_62493" x1="-3.18966" y1="14.2624" x2="30.7662" y2="51.2926" gradientUnits="userSpaceOnUse">
<stop offset="0.613036" stop-color="white" stop-opacity="0"/>
<stop offset="0.902108" stop-color="white"/>
</linearGradient>
<linearGradient id="paint1_linear_791_62493" x1="-3.18966" y1="14.2624" x2="30.7662" y2="51.2926" gradientUnits="userSpaceOnUse">
<stop offset="0.248923" stop-color="#D2DAF0" stop-opacity="0.8"/>
<stop offset="0.548747" stop-color="#D2DAF0" stop-opacity="0"/>
</linearGradient>
</defs>
</svg>
