<svg width="56" height="56" viewBox="0 0 56 56" fill="none" xmlns="http://www.w3.org/2000/svg">
<g filter="url(#filter0_dd_791_62525)">
<path d="M49 21.583C49 21.583 49 21.5289 49 21.5073C49 21.4748 49 21.4316 48.9784 21.3991C48.9784 21.3667 48.9784 21.3343 48.9567 21.3018C48.8594 20.9558 48.5999 20.6963 48.2539 20.5773L28.3352 14.0567C28.1189 13.981 27.8811 13.981 27.6648 14.0567L7.74614 20.5773C7.41092 20.6855 7.15139 20.9558 7.04325 21.3018C7.01081 21.3991 7 21.4965 7 21.5938C7 21.5938 7 21.5938 7 21.6154V33.6834C7 33.9321 7.08651 34.17 7.2379 34.3646C7.46498 34.6458 13.0015 41.2853 28 41.2853C42.9985 41.2853 48.535 34.6458 48.7621 34.3646C48.9135 34.17 49 33.9321 49 33.6834V21.6046C49 21.6046 49 21.583 49 21.5722V21.583ZM18.2137 23.1401C18.2137 22.6752 18.5922 22.2859 19.068 22.2859C19.5438 22.2859 19.9222 22.6643 19.9222 23.1401C19.9222 23.6159 19.5438 23.9944 19.068 23.9944C18.5922 23.9944 18.2137 23.6159 18.2137 23.1401ZM21.3388 26.2436C21.3388 25.4651 21.9768 24.8271 22.7554 24.8271C23.534 24.8271 24.172 25.4651 24.172 26.2436C24.172 26.4707 24.1071 26.6762 24.0206 26.86C23.1014 26.7735 22.2255 26.6654 21.4037 26.5356C21.3821 26.4383 21.3496 26.3518 21.3496 26.2436H21.3388ZM30.671 24.3945C30.671 23.9187 31.0494 23.5402 31.5252 23.5402C32.001 23.5402 32.3795 23.9187 32.3795 24.3945C32.3795 24.8703 32.001 25.2488 31.5252 25.2488C31.0494 25.2488 30.671 24.8703 30.671 24.3945ZM35.9912 25.1623C35.9912 24.2215 36.7482 23.4645 37.689 23.4645C38.6298 23.4645 39.3867 24.2215 39.3867 25.1623C39.3867 25.238 39.3759 25.3137 39.3651 25.3894C38.4567 25.6921 37.4619 25.9625 36.3697 26.2112C36.1426 25.9192 36.0021 25.5624 36.0021 25.1731L35.9912 25.1623ZM25.7832 21.3018C25.7832 20.6422 26.3239 20.1015 26.9835 20.1015C27.6432 20.1015 28.1838 20.6422 28.1838 21.3018C28.1838 21.9615 27.6432 22.5021 26.9835 22.5021C26.3239 22.5021 25.7832 21.9615 25.7832 21.3018ZM28.0216 16.2194L45.8532 22.0588C45.345 22.4589 44.6637 22.9347 43.8095 23.4321L28.3568 18.3713C28.1406 18.2956 27.9027 18.2956 27.6864 18.3713L12.2122 23.4321C11.3579 22.9347 10.6766 22.4589 10.1684 22.0588L28 16.2194H28.0216Z" fill="#EAEFFD"/>
</g>
<path d="M49 21.583C49 21.583 49 21.529 49 21.5073C49 21.4749 49 21.4316 48.9784 21.3992C48.9784 21.3668 48.9784 21.3343 48.9567 21.3019C48.8594 20.9558 48.5999 20.6963 48.2539 20.5774L28.3352 14.0568C28.1189 13.9811 27.8811 13.9811 27.6648 14.0568L7.74614 20.5774C7.41092 20.6855 7.15139 20.9558 7.04325 21.3019C7.01081 21.3992 7 21.4965 7 21.5938C7 21.5938 7 21.5938 7 21.6155V33.6834C7 33.9322 7.08651 34.1701 7.2379 34.3647C7.46498 34.6459 13.0015 41.2854 28 41.2854C42.9985 41.2854 48.535 34.6459 48.7621 34.3647C48.9135 34.1701 49 33.9322 49 33.6834V21.6047C49 21.6047 49 21.583 49 21.5722V21.583ZM18.2137 23.1402C18.2137 22.6752 18.5922 22.2859 19.068 22.2859C19.5438 22.2859 19.9222 22.6644 19.9222 23.1402C19.9222 23.616 19.5438 23.9945 19.068 23.9945C18.5922 23.9945 18.2137 23.616 18.2137 23.1402ZM21.3388 26.2437C21.3388 25.4651 21.9768 24.8271 22.7554 24.8271C23.534 24.8271 24.172 25.4651 24.172 26.2437C24.172 26.4708 24.1071 26.6762 24.0206 26.8601C23.1014 26.7736 22.2255 26.6654 21.4037 26.5357C21.3821 26.4383 21.3496 26.3518 21.3496 26.2437H21.3388ZM30.671 24.3946C30.671 23.9188 31.0494 23.5403 31.5252 23.5403C32.001 23.5403 32.3795 23.9188 32.3795 24.3946C32.3795 24.8704 32.001 25.2488 31.5252 25.2488C31.0494 25.2488 30.671 24.8704 30.671 24.3946ZM35.9912 25.1623C35.9912 24.2215 36.7482 23.4646 37.689 23.4646C38.6298 23.4646 39.3867 24.2215 39.3867 25.1623C39.3867 25.238 39.3759 25.3137 39.3651 25.3894C38.4567 25.6922 37.4619 25.9625 36.3697 26.2113C36.1426 25.9193 36.0021 25.5624 36.0021 25.1731L35.9912 25.1623ZM25.7832 21.3019C25.7832 20.6423 26.3239 20.1016 26.9835 20.1016C27.6432 20.1016 28.1838 20.6423 28.1838 21.3019C28.1838 21.9615 27.6432 22.5022 26.9835 22.5022C26.3239 22.5022 25.7832 21.9615 25.7832 21.3019ZM28.0216 16.2195L45.8532 22.0588C45.345 22.4589 44.6637 22.9347 43.8095 23.4322L28.3568 18.3714C28.1406 18.2957 27.9027 18.2957 27.6864 18.3714L12.2122 23.4322C11.3579 22.9347 10.6766 22.4589 10.1684 22.0588L28 16.2195H28.0216Z" fill="url(#paint0_linear_791_62525)"/>
<path d="M49 21.583C49 21.583 49 21.529 49 21.5073C49 21.4749 49 21.4316 48.9784 21.3992C48.9784 21.3668 48.9784 21.3343 48.9567 21.3019C48.8594 20.9558 48.5999 20.6963 48.2539 20.5774L28.3352 14.0568C28.1189 13.9811 27.8811 13.9811 27.6648 14.0568L7.74614 20.5774C7.41092 20.6855 7.15139 20.9558 7.04325 21.3019C7.01081 21.3992 7 21.4965 7 21.5938C7 21.5938 7 21.5938 7 21.6155V33.6834C7 33.9322 7.08651 34.1701 7.2379 34.3647C7.46498 34.6459 13.0015 41.2854 28 41.2854C42.9985 41.2854 48.535 34.6459 48.7621 34.3647C48.9135 34.1701 49 33.9322 49 33.6834V21.6047C49 21.6047 49 21.583 49 21.5722V21.583ZM18.2137 23.1402C18.2137 22.6752 18.5922 22.2859 19.068 22.2859C19.5438 22.2859 19.9222 22.6644 19.9222 23.1402C19.9222 23.616 19.5438 23.9945 19.068 23.9945C18.5922 23.9945 18.2137 23.616 18.2137 23.1402ZM21.3388 26.2437C21.3388 25.4651 21.9768 24.8271 22.7554 24.8271C23.534 24.8271 24.172 25.4651 24.172 26.2437C24.172 26.4708 24.1071 26.6762 24.0206 26.8601C23.1014 26.7736 22.2255 26.6654 21.4037 26.5357C21.3821 26.4383 21.3496 26.3518 21.3496 26.2437H21.3388ZM30.671 24.3946C30.671 23.9188 31.0494 23.5403 31.5252 23.5403C32.001 23.5403 32.3795 23.9188 32.3795 24.3946C32.3795 24.8704 32.001 25.2488 31.5252 25.2488C31.0494 25.2488 30.671 24.8704 30.671 24.3946ZM35.9912 25.1623C35.9912 24.2215 36.7482 23.4646 37.689 23.4646C38.6298 23.4646 39.3867 24.2215 39.3867 25.1623C39.3867 25.238 39.3759 25.3137 39.3651 25.3894C38.4567 25.6922 37.4619 25.9625 36.3697 26.2113C36.1426 25.9193 36.0021 25.5624 36.0021 25.1731L35.9912 25.1623ZM25.7832 21.3019C25.7832 20.6423 26.3239 20.1016 26.9835 20.1016C27.6432 20.1016 28.1838 20.6423 28.1838 21.3019C28.1838 21.9615 27.6432 22.5022 26.9835 22.5022C26.3239 22.5022 25.7832 21.9615 25.7832 21.3019ZM28.0216 16.2195L45.8532 22.0588C45.345 22.4589 44.6637 22.9347 43.8095 23.4322L28.3568 18.3714C28.1406 18.2957 27.9027 18.2957 27.6864 18.3714L12.2122 23.4322C11.3579 22.9347 10.6766 22.4589 10.1684 22.0588L28 16.2195H28.0216Z" fill="url(#paint1_linear_791_62525)"/>
<defs>
<filter id="filter0_dd_791_62525" x="1" y="6.99995" width="54" height="41.2854" filterUnits="userSpaceOnUse" color-interpolation-filters="sRGB">
<feFlood flood-opacity="0" result="BackgroundImageFix"/>
<feColorMatrix in="SourceAlpha" type="matrix" values="0 0 0 0 0 0 0 0 0 0 0 0 0 0 0 0 0 0 127 0" result="hardAlpha"/>
<feOffset dx="-1" dy="-2"/>
<feGaussianBlur stdDeviation="2.5"/>
<feComposite in2="hardAlpha" operator="out"/>
<feColorMatrix type="matrix" values="0 0 0 0 0.917647 0 0 0 0 0.937255 0 0 0 0 0.992157 0 0 0 0.2 0"/>
<feBlend mode="normal" in2="BackgroundImageFix" result="effect1_dropShadow_791_62525"/>
<feColorMatrix in="SourceAlpha" type="matrix" values="0 0 0 0 0 0 0 0 0 0 0 0 0 0 0 0 0 0 127 0" result="hardAlpha"/>
<feOffset dx="1" dy="2"/>
<feGaussianBlur stdDeviation="2.5"/>
<feComposite in2="hardAlpha" operator="out"/>
<feColorMatrix type="matrix" values="0 0 0 0 0.231373 0 0 0 0 0.141176 0 0 0 0 0.776471 0 0 0 0.5 0"/>
<feBlend mode="normal" in2="effect1_dropShadow_791_62525" result="effect2_dropShadow_791_62525"/>
<feBlend mode="normal" in="SourceGraphic" in2="effect2_dropShadow_791_62525" result="shape"/>
</filter>
<linearGradient id="paint0_linear_791_62525" x1="-10.0333" y1="16.5436" x2="13.3331" y2="55.7718" gradientUnits="userSpaceOnUse">
<stop offset="0.613036" stop-color="white" stop-opacity="0"/>
<stop offset="0.902108" stop-color="white"/>
</linearGradient>
<linearGradient id="paint1_linear_791_62525" x1="-10.0333" y1="16.5436" x2="13.3331" y2="55.7718" gradientUnits="userSpaceOnUse">
<stop offset="0.248923" stop-color="#D2DAF0" stop-opacity="0.8"/>
<stop offset="0.548747" stop-color="#D2DAF0" stop-opacity="0"/>
</linearGradient>
</defs>
</svg>
